<svg width="512" height="512" viewBox="0 0 512 512" fill="none" xmlns="http://www.w3.org/2000/svg">
<path d="M256 126C192.589 126 141 177.589 141 241C141 271.388 152.852 299.055 172.17 319.636C175.113 309.093 180.043 299.113 186.796 290.261C176.867 276.353 171 259.354 171 241C171 194.131 209.131 156 256 156C302.869 156 341 194.131 341 241C341 259.354 335.133 276.353 325.204 290.262C331.957 299.114 336.887 309.093 339.83 319.637C359.148 299.055 371 271.388 371 241C371 177.589 319.411 126 256 126Z" fill="black"/>
<path d="M256 66C159.505 66 81 144.505 81 241C81 308.571 119.499 367.314 175.711 396.463L170.189 357.805C134.32 331.383 111 288.866 111 241C111 161.047 176.047 96 256 96C335.953 96 401 161.047 401 241C401 288.866 377.68 331.383 341.811 357.805L336.289 396.463C392.501 367.314 431 308.571 431 241C431 144.505 352.495 66 256 66Z" fill="black"/>
<path d="M407 0H105C47.103 0 0 47.103 0 105V407C0 464.897 47.103 512 105 512H407C464.897 512 512 464.897 512 407V105C512 47.103 464.897 0 407 0ZM482 407C482 448.355 448.355 482 407 482H105C63.645 482 30 448.355 30 407V105C30 63.645 63.645 30 105 30H407C448.355 30 482 63.645 482 105V407Z" fill="black"/>
<path d="M256 186C231.187 186 211 206.187 211 231C211 255.813 231.187 276 256 276C280.813 276 301 255.813 301 231C301 206.187 280.813 186 256 186ZM256 246C247.729 246 241 239.271 241 231C241 222.729 247.729 216 256 216C264.271 216 271 222.729 271 231C271 239.271 264.271 246 256 246Z" fill="black"/>
<path d="M306.644 299.115C293.904 284.425 275.445 276 256 276C236.555 276 218.096 284.425 205.356 299.115C192.615 313.804 186.886 333.269 189.636 352.518L197.471 407.364C200.618 429.39 219.769 446 242.019 446H269.981C292.231 446 311.382 429.39 314.529 407.364L322.364 352.519C325.114 333.269 319.384 313.804 306.644 299.115ZM292.667 348.276L284.832 403.121C283.783 410.463 277.399 416 269.982 416H242.02C234.603 416 228.219 410.464 227.17 403.122L219.335 348.276C217.816 337.641 220.981 326.887 228.02 318.771C235.059 310.655 245.257 306 256 306C266.743 306 276.941 310.655 283.982 318.771C291.021 326.886 294.186 337.641 292.667 348.276Z" fill="black"/>
</svg>
