<svg width="30" height="30" viewBox="0 0 30 30" fill="none" xmlns="http://www.w3.org/2000/svg">
<g clip-path="url(#clip0)">
<path d="M1.875 12.0994C1.37772 12.0994 0.900806 12.2969 0.549175 12.6485C0.197544 13.0002 0 13.4771 0 13.9744L0 16.0106C0 18.5109 3.75 18.5109 3.75 16.0106V13.9744C3.75 13.4771 3.55246 13.0002 3.20083 12.6485C2.84919 12.2969 2.37228 12.0994 1.875 12.0994V12.0994ZM28.125 12.0994C27.6277 12.0994 27.1508 12.2969 26.7992 12.6485C26.4475 13.0002 26.25 13.4771 26.25 13.9744V16.0106C26.25 18.5109 30 18.5109 30 16.0106V13.9744C30 13.4771 29.8025 13.0002 29.4508 12.6485C29.0992 12.2969 28.6223 12.0994 28.125 12.0994V12.0994ZM8.34938 18.2372C7.85209 18.2372 7.37518 18.4347 7.02355 18.7864C6.67192 19.138 6.47438 19.6149 6.47438 20.1122V22.1484C6.47438 24.6488 10.2244 24.6488 10.2244 22.1484V20.1272C10.2244 19.0875 9.38906 18.2522 8.34938 18.2522V18.2372ZM8.34938 5.96156C7.85209 5.96156 7.37518 6.15911 7.02355 6.51074C6.67192 6.86237 6.47438 7.33928 6.47438 7.83656V14.5359C6.47438 17.0363 10.2244 17.0363 10.2244 14.5359V7.82719C10.2244 6.7875 9.38906 5.95219 8.34938 5.95219V5.96156ZM21.6506 5.96156C20.6109 5.96156 19.7756 6.80156 19.7756 7.83656V9.88781C19.7756 12.3881 23.5256 12.3881 23.5256 9.88781V7.83656C23.5256 7.33928 23.3281 6.86237 22.9764 6.51074C22.6248 6.15911 22.1479 5.96156 21.6506 5.96156V5.96156ZM15 0C14.5027 0 14.0258 0.197544 13.6742 0.549175C13.3225 0.900806 13.125 1.37772 13.125 1.875V3.91125C13.125 6.41156 16.875 6.41156 16.875 3.91125V1.875C16.875 1.37772 16.6775 0.900806 16.3258 0.549175C15.9742 0.197544 15.4973 0 15 0V0ZM15 24.1997C14.5027 24.1997 14.0258 24.3972 13.6742 24.7489C13.3225 25.1005 13.125 25.5774 13.125 26.0747V28.1259C13.1156 30.6262 16.8656 30.6403 16.875 28.1409V26.0897C16.875 25.0641 16.035 24.2147 15 24.2147V24.1997ZM21.6506 13.6228C20.6109 13.6228 19.7756 14.4722 19.7756 15.4978V22.1625C19.7756 24.6628 23.5256 24.6628 23.5256 22.1625V15.4978C23.5256 15.0005 23.3281 14.5236 22.9764 14.172C22.6248 13.8204 22.1479 13.6228 21.6506 13.6228ZM15 7.66125C13.965 7.66125 13.125 8.51062 13.125 9.53625V20.4497C13.125 22.95 16.875 22.95 16.875 20.4497V9.55125C16.875 8.51156 16.035 7.67625 15 7.67625V7.66125Z" fill="black"/>
</g>
<defs>
<clipPath id="clip0">
<rect width="30" height="30" fill="white"/>
</clipPath>
</defs>
</svg>
